<svg width="298" height="46" viewBox="0 0 298 46" fill="none" xmlns="http://www.w3.org/2000/svg">
<rect width="34.9933" height="45.717" rx="17.4966" fill="black"/>
<rect x="37.3953" width="15.9412" height="45.5462" rx="7.97059" fill="black"/>
<path d="M281.426 44.8662C277.252 44.8662 273.733 43.3111 270.868 40.201C268.045 37.0909 266.633 33.326 266.633 28.9063C266.633 24.4867 268.045 20.7218 270.868 17.6116C273.733 14.5015 277.252 12.9464 281.426 12.9464C283.513 12.9464 285.437 13.417 287.196 14.3583C288.956 15.2586 290.307 16.3635 291.248 17.673V13.5603H298V44.2524H291.248V40.1396C290.307 41.4492 288.956 42.5745 287.196 43.5158C285.437 44.4161 283.513 44.8662 281.426 44.8662ZM276.086 35.9041C277.805 37.7866 279.994 38.7278 282.654 38.7278C285.314 38.7278 287.503 37.7866 289.222 35.9041C290.941 34.0217 291.8 31.6891 291.8 28.9063C291.8 26.1236 290.941 23.791 289.222 21.9085C287.503 20.0261 285.314 19.0848 282.654 19.0848C279.994 19.0848 277.805 20.0261 276.086 21.9085C274.367 23.791 273.508 26.1236 273.508 28.9063C273.508 31.6891 274.367 34.0217 276.086 35.9041Z" fill="black"/>
<path d="M248.998 44.8662V14.1741H255.751V19.6373C256.323 17.9185 257.367 16.5272 258.881 15.4632C260.436 14.3992 262.094 13.8672 263.853 13.8672C264.917 13.8672 265.797 13.949 266.493 14.1127V21.0491C265.511 20.6808 264.385 20.4967 263.117 20.4967C261.071 20.4967 259.331 21.3356 257.899 23.0134C256.467 24.6503 255.751 26.942 255.751 29.8885V44.8662H248.998Z" fill="black"/>
<path d="M240.016 44.8976C236.906 44.8976 234.369 44.0383 232.405 42.3195C230.481 40.5598 229.52 38.0226 229.52 34.7079V19.9143H223.136V13.8986H229.52V8.97461L236.272 5.36621V13.8986H245.05V19.9143H236.272V33.603C236.272 35.4854 236.681 36.8359 237.5 37.6543C238.318 38.4318 239.628 38.8206 241.428 38.8206C242.901 38.8206 244.109 38.616 245.05 38.2068V44.2224C243.577 44.6726 241.899 44.8976 240.016 44.8976Z" fill="black"/>
<path d="M193.064 44.8665V14.1744H199.816V18.3485C201.74 15.1565 204.85 13.5605 209.147 13.5605C212.707 13.5605 215.551 14.7268 217.679 17.0594C219.807 19.392 220.871 22.5022 220.871 26.3899V44.8665H214.119V27.4948C214.119 25.0394 213.546 23.1365 212.4 21.786C211.254 20.3947 209.699 19.699 207.735 19.699C205.402 19.699 203.5 20.5788 202.026 22.3385C200.553 24.0982 199.816 26.574 199.816 29.766V44.8665H193.064Z" fill="black"/>
<path d="M173.178 44.8662C168.595 44.8662 164.83 43.3725 161.884 40.3852C158.937 37.3569 157.464 33.5306 157.464 28.9063C157.464 24.282 158.917 20.4762 161.822 17.4889C164.728 14.4606 168.533 12.9464 173.24 12.9464C177.987 12.9464 181.813 14.6038 184.718 17.9185C187.624 21.1924 188.913 25.4074 188.586 30.5637H164.155C164.237 32.9372 165.137 34.922 166.856 36.518C168.574 38.1139 170.764 38.9119 173.424 38.9119C177.189 38.9119 179.767 37.4796 181.158 34.615H188.217C187.276 37.6024 185.476 40.0578 182.816 41.9812C180.156 43.9045 176.943 44.8662 173.178 44.8662ZM173.055 18.5938C170.846 18.5938 168.943 19.2281 167.347 20.4967C165.792 21.7244 164.789 23.484 164.339 25.7757H181.342C180.851 23.4022 179.849 21.6221 178.335 20.4353C176.82 19.2076 175.061 18.5938 173.055 18.5938Z" fill="black"/>
<path d="M140.093 44.8662C135.469 44.8662 131.622 43.3316 128.553 40.2624C125.524 37.1523 124.01 33.3669 124.01 28.9063C124.01 24.4457 125.524 20.6808 128.553 17.6116C131.622 14.5015 135.469 12.9464 140.093 12.9464C144.062 12.9464 147.438 14.0513 150.221 16.2612C153.045 18.471 154.866 21.3151 155.684 24.7936H148.564C147.95 23.0748 146.886 21.7039 145.372 20.6808C143.899 19.6168 142.139 19.0848 140.093 19.0848C137.392 19.0848 135.182 20.0056 133.463 21.8471C131.745 23.6887 130.885 26.0417 130.885 28.9063C130.885 31.7709 131.745 34.124 133.463 35.9655C135.182 37.807 137.392 38.7278 140.093 38.7278C142.139 38.7278 143.899 38.2163 145.372 37.1932C146.886 36.1292 147.95 34.7378 148.564 33.0191H155.684C154.866 36.4975 153.045 39.3416 150.221 41.5515C147.438 43.7613 144.062 44.8662 140.093 44.8662Z" fill="black"/>
<path d="M104.132 40.2007C101.308 43.3108 97.8093 44.8659 93.6351 44.8659C91.5481 44.8659 89.6042 44.4157 87.8036 43.5154C86.0439 42.5742 84.6935 41.4488 83.7523 40.1393V44.252H77V1.1416H83.7523V17.6727C84.6935 16.3631 86.0439 15.2582 87.8036 14.3579C89.6042 13.4167 91.5481 12.9461 93.6351 12.9461C97.8093 12.9461 101.308 14.5011 104.132 17.6113C106.996 20.7214 108.429 24.4863 108.429 28.906C108.429 33.3256 106.996 37.0905 104.132 40.2007ZM92.4074 38.7275C95.0674 38.7275 97.2568 37.7862 98.9755 35.9038C100.694 34.0213 101.554 31.6887 101.554 28.906C101.554 26.1232 100.694 23.7906 98.9755 21.9082C97.2568 20.0257 95.0674 19.0845 92.4074 19.0845C89.7065 19.0845 87.4967 20.0257 85.7779 21.9082C84.0592 23.7906 83.1998 26.1232 83.1998 28.906C83.1998 31.6887 84.0592 34.0213 85.7779 35.9038C87.4967 37.7862 89.7065 38.7275 92.4074 38.7275Z" fill="black"/>
<path d="M120.153 8.20664H112.132V1H120.153V8.20664ZM120.153 44.8665H112.132V13.5333H120.153V44.8665Z" fill="black"/>
</svg>
